<?xml version="1.0" encoding="UTF-8"?>
<svg id="Layer_5" xmlns="http://www.w3.org/2000/svg" version="1.1" viewBox="0 0 288 124.27857">
  <!-- Generator: Adobe Illustrator 29.6.0, SVG Export Plug-In . SVG Version: 2.1.1 Build 207)  -->
  <defs>
    <style>
      .st0 {
        fill: #4a4777;
      }

      .st1 {
        fill: #2a5177;
      }

      .st2 {
        fill: #a82975;
      }

      .st3 {
        fill: #693d76;
      }

      .st4 {
        fill: #893376;
      }

      .st5 {
        fill: #0b5b78;
      }
    </style>
  </defs>
  <g>
    <polygon class="st5" points="64.5166 80.04931 64.5166 74.71829 74.36296 74.71829 74.36296 69.69823 64.5166 69.69823 64.5166 64.911 75.84123 64.911 75.84123 59.57998 58.52379 59.57998 58.52379 85.38113 76.07485 85.38113 76.07485 80.04931 64.5166 80.04931"/>
    <polygon class="st5" points="96.38889 59.57998 90.47381 78.26606 84.55874 59.57998 78.13776 59.57998 87.20512 85.38113 93.74251 85.38113 102.7716 59.57998 96.38889 59.57998"/>
    <polygon class="st5" points="110.93139 80.04931 110.93139 74.71829 120.77775 74.71829 120.77775 69.69823 110.93139 69.69823 110.93139 64.911 122.25602 64.911 122.25602 59.57998 104.93858 59.57998 104.93858 85.38113 122.48964 85.38113 122.48964 80.04931 110.93139 80.04931"/>
    <path class="st5" d="M140.62037,85.38113h6.49912l-5.26095-10.26257c1.28222-.58605,2.3389-1.45275,3.14003-2.6384.92093-1.36186,1.38179-2.9382,1.38179-4.72823,0-1.21913-.21448-2.33461-.64266-3.34644-.42737-1.01183-1.03096-1.87455-1.80917-2.58817-.7782-.71282-1.68717-1.26458-2.72451-1.65368-1.03734-.3891-2.15362-.58365-3.34644-.58365h-11.3637v25.80114h5.95454v-9.30098h3.46644l4.70551,9.30098ZM132.44842,64.83366h4.55281c.98551,0,1.77647.27189,2.37368.81727.59721.54458.89541,1.2582.89541,2.14006,0,.88266-.29821,1.63455-.89541,2.25727s-1.38817.93369-2.37368.93369h-4.55281v-6.14829Z"/>
    <path class="st5" d="M155.71243,75.65198l-9.10643-16.07199h6.57726l5.44823,10.04011,5.44823-10.04011h6.5374l-9.06736,16.07199v9.72915h-5.83733v-9.72915Z"/>
    <path class="st5" d="M181.866,76.81928c.67455,1.21993,1.50458,2.1281,2.49089,2.72451.98551.59721,2.11375.89462,3.38551.89462.49276,0,.94644-.05821,1.36186-.17462.41462-.11721.77183-.28545,1.07003-.50631.29821-.22007.5382-.47282.72-.75827.181-.28545.27269-.60997.27269-.97355,0-.36279-.09169-.68651-.27269-.97276-.18179-.28465-.44731-.5382-.79734-.75907-.35083-.22007-.81169-.43375-1.38179-.64186-.5709-.20731-1.23269-.44093-1.98458-.70007-1.06445-.3891-2.10179-.78458-3.11361-1.18724-1.01183-.40186-1.91362-.90099-2.70458-1.4982-.79176-.59641-1.41448-1.32917-1.86817-2.19907-.45369-.8683-.68093-1.93913-.68093-3.21009,0-1.19362.25276-2.27003.75907-3.23003.50551-.96,1.17369-1.76451,2.00451-2.41275.83003-.64824,1.77647-1.14817,2.84013-1.4982,1.06365-.35083,2.16637-.52545,3.30817-.52545s2.17275.12279,3.09368.36917c.92093.24718,1.75734.60359,2.51003,1.07083.75269.46644,1.42086,1.03096,2.00451,1.69275.58365.661,1.08279,1.39455,1.4982,2.19827l-4.20278,3.11361c-.49355-.90817-1.16173-1.65368-2.00451-2.23813-.84279-.58365-1.83548-.87548-2.97727-.87548-.36359,0-.72638.04545-1.08917.13635-.36359.0909-.68093.23362-.95362.42817s-.49993.43455-.68093.72c-.18179.28545-.27269.62272-.27269,1.01183,0,.41541.12279.78458.36997,1.1091.24638.32452.55734.59721.93369.81727.37634.22086.79176.40824,1.24545.56452.45369.15548.91455.31096,1.38179.46644,1.24545.41541,2.41913.84997,3.52185,1.30365,1.10272.45448,2.04279.99269,2.82099,1.61541.779.62272,1.39455,1.35548,1.84903,2.19827.45369.84359.68093,1.8881.68093,3.13275,0,1.29807-.27269,2.42631-.81727,3.38631s-1.26458,1.76451-2.16,2.41275c-.89462.64824-1.88731,1.13541-2.97727,1.45913-1.08917.32372-2.17913.48638-3.2683.48638-1.21993,0-2.34897-.12997-3.38631-.3891-1.03734-.25914-1.98458-.63548-2.84092-1.12824-.85555-.49276-1.62099-1.09634-2.29554-1.80996-.67535-.71362-1.24545-1.51096-1.71269-2.39362l4.31999-3.23003Z"/>
    <polygon class="st5" points="218.92865 59.57998 198.4976 59.57998 198.4976 64.95007 205.65772 64.95007 205.65772 85.38113 211.65133 85.38113 211.65133 64.95007 218.92865 64.95007 218.92865 59.57998"/>
    <path class="st5" d="M236.05074,85.38113h6.38271l-9.41819-25.80114h-7.00464l-9.37832,25.80114h6.38191l1.67711-4.78644h9.61294l1.74647,4.78644ZM232.86567,75.73012h-6.70543l3.35312-9.67732,3.35232,9.67732Z"/>
    <path class="st5" d="M243.37604,67.26555c.63548-1.62099,1.51734-3.03548,2.64637-4.24185,1.12824-1.20638,2.47734-2.14644,4.0473-2.82099,1.56917-.67455,3.31375-1.01183,5.23374-1.01183,2.15362,0,4.15095.51269,5.99361,1.53727,1.84186,1.02458,3.30737,2.4582,4.39733,4.30006l-4.51454,3.2691c-.62272-1.08996-1.44-1.93913-2.45182-2.5491-1.01183-.60917-2.14006-.91455-3.38551-.91455-1.06365,0-2.01089.19455-2.84092.58365-.83083.3891-1.54365.9281-2.14006,1.61461-.59721.6881-1.05089,1.4982-1.36266,2.43269-.31096.93369-.46644,1.95907-.46644,3.07455,0,1.06365.1491,2.05634.44731,2.97647.29821.92173.73913,1.72624,1.32359,2.41275.58365.6881,1.29648,1.23269,2.14006,1.63455.84279.40266,1.78365.60359,2.82099.60359.70086,0,1.36824-.10365,2.00451-.31176.63548-.20731,1.2-.49196,1.69275-.85555s.90817-.8109,1.24545-1.34272c.33648-.53183.55734-1.13462.66179-1.80996h-6.34364v-4.86457h12.37552c.05183.28625.07734.59721.07734.93448v1.01183c.02631,1.86737-.24,3.58644-.79734,5.1564-.55814,1.56996-1.3491,2.92544-2.37368,4.06644-1.02538,1.14179-2.26445,2.03003-3.7164,2.66551-1.45355.63548-3.06179.95362-4.8263.95362-1.89368,0-3.63189-.33728-5.21461-1.01183-1.58272-.67455-2.9382-1.60824-4.06644-2.80185-1.12903-1.19282-2.00451-2.59375-2.62724-4.20278-.62272-1.60824-.93369-3.34724-.93369-5.21461,0-1.89368.31734-3.65182.95362-5.27361Z"/>
    <polygon class="st5" points="276.44175 80.04931 276.44175 74.71829 286.28811 74.71829 286.28811 69.69823 276.44175 69.69823 276.44175 64.911 287.76638 64.911 287.76638 59.57998 270.44894 59.57998 270.44894 85.38113 288 85.38113 288 80.04931 276.44175 80.04931"/>
    <polygon class="st5" points="74.86847 92.73308 74.86847 102.7732 64.5166 102.7732 64.5166 92.73308 58.52379 92.73308 58.52379 118.53423 64.5166 118.53423 64.5166 107.9878 74.86847 107.9878 74.86847 118.53423 80.86208 118.53423 80.86208 92.73308 74.86847 92.73308"/>
    <polygon class="st5" points="91.96027 113.20241 91.96027 107.87139 101.80663 107.87139 101.80663 102.85134 91.96027 102.85134 91.96027 98.0641 103.2849 98.0641 103.2849 92.73308 85.96746 92.73308 85.96746 118.53423 103.51852 118.53423 103.51852 113.20241 91.96027 113.20241"/>
    <path class="st5" d="M125.21734,118.53423h6.38271l-9.41819-25.80114h-7.00464l-9.37832,25.80114h6.38191l1.67711-4.78644h9.61294l1.74647,4.78644ZM122.03227,108.88322h-6.70543l3.35312-9.67732,3.35232,9.67732Z"/>
    <polygon class="st5" points="140.22648 113.16414 140.22648 92.73308 134.23367 92.73308 134.23367 118.53423 152.48559 118.53423 152.48559 113.16414 140.22648 113.16414"/>
    <polygon class="st5" points="170.66751 92.73308 150.23645 92.73308 150.23645 98.10317 157.39657 98.10317 157.39657 118.53423 163.39018 118.53423 163.39018 98.10317 170.66751 98.10317 170.66751 92.73308"/>
    <polygon class="st5" points="189.89888 92.73308 189.89888 102.7732 179.54701 102.7732 179.54701 92.73308 173.5542 92.73308 173.5542 118.53423 179.54701 118.53423 179.54701 107.9878 189.89888 107.9878 189.89888 118.53423 195.89249 118.53423 195.89249 92.73308 189.89888 92.73308"/>
  </g>
  <g>
    <path class="st4" d="M76.08565,0c-3.83465,0-7.59919.29473-11.28114.84256l4.60777,24.66569c2.35151-.32703,4.74764-.51553,7.18923-.51553,5.12746,0,10.07358.7623,14.75096,2.14969l8.22795-23.41317c-7.4027-2.40346-15.29096-3.72924-23.49476-3.72924Z"/>
    <path class="st5" d="M17.21353,124.27857l12.84687-10.94795,5.57954-4.75497c-4.63108-5.96619-7.98201-12.96843-9.6558-20.60275l-24.18813,4.50187c2.60877,11.87743,7.97285,22.72014,15.41751,31.8038Z"/>
    <path class="st3" d="M28.51815,16.72964l16.36031,19.13243c5.79301-4.49221,12.55814-7.78052,19.93403-9.49695L60.2004,1.67679c-11.80882,2.50903-22.59559,7.76121-31.68225,15.05285Z"/>
    <path class="st2" d="M103.9832,5.31346l-8.21213,23.36821c7.46098,2.97327,14.07674,7.60968,19.36206,13.48029l18.42891-15.8994c-7.96286-9.17791-18.0859-16.4146-29.57884-20.9491Z"/>
    <path class="st1" d="M0,76.08615c0,4.01232.33003,7.94604.92948,11.79051l24.27222-4.51719c-.27142-2.1417-.43593-4.31637-.43593-6.531,0-5.33643.82308-10.47671,2.32137-15.32093L3.57272,53.06528c-2.30555,7.265-3.57272,14.99224-3.57272,23.02086Z"/>
    <path class="st0" d="M5.12663,48.652l23.54605,8.45357c2.86937-6.96594,7.20489-13.16891,12.63373-18.2216l-16.34533-19.11445c-8.68253,7.88709-15.52674,17.7487-19.83446,28.88248Z"/>
  </g>
</svg>